Coordinates
version=1
nRows=16
nColumns=22
inDegrees=yes

Units are S.I. units (second, meters, Newtons, ...)
If the header above contains a line with 'inDegrees', this indicates whether rotational values are in degrees (yes) or radians (no).

endheader
time	pelvis_tilt	pelvis_list	pelvis_rotation	pelvis_tx	pelvis_ty	pelvis_tz	hip_flexion_r	hip_adduction_r	hip_rotation_r	knee_angle_r	ankle_angle_r	subtalar_angle_r	hip_flexion_l	hip_adduction_l	hip_rotation_l	knee_angle_l	ankle_angle_l	subtalar_angle_l	lumbar_extension	lumbar_bending	lumbar_rotation
      0.01000000	      5.06303081	     -3.01425351	      4.62363794	     -1.18544856	      0.95384094	     -0.45955510	     -5.56050611	      4.04934958	    -12.71810171	     -7.96032513	      9.09668526	      0.72202996	     -2.58667289	     -2.96239516	    -13.52671363	    -14.84796213	     20.28034235	     -6.49269994	    -12.11541731	      3.50306618	     -9.54067715
      0.02000000	      5.02715174	     -3.01585125	      4.60009127	     -1.18501528	      0.95376506	     -0.45960258	     -5.57440241	      4.04477187	    -12.74534094	     -7.91220804	      9.09222894	      0.72299884	     -2.60413086	     -2.95470935	    -13.55673438	    -14.80281003	     20.30028852	     -6.48792782	    -12.06849676	      3.49153329	     -9.52751891
      0.03000000	      4.98570071	     -3.01608258	      4.56842326	     -1.18459170	      0.95368406	     -0.45963094	     -5.57787708	      4.03799082	    -12.75367600	     -7.87126617	      9.09210908	      0.72558708	     -2.61688127	     -2.94505914	    -13.59437684	    -14.75616832	     20.32581958	     -6.47702228	    -12.01659261	      3.47626634	     -9.51028104
      0.04000000	      4.94000210	     -3.01730139	      4.53047244	     -1.18418756	      0.95359864	     -0.45964703	     -5.57141963	      4.03129319	    -12.74703675	     -7.83733628	      9.09653921	      0.72876892	     -2.62334918	     -2.93622711	    -13.64007964	    -14.71167778	     20.35390113	     -6.46206743	    -11.96277263	      3.46212038	     -9.49089004
      0.05000000	      4.87097365	     -3.02107491	      4.46067153	     -1.18384511	      0.95347692	     -0.45959266	     -5.51741905	      4.02290790	    -12.66087690	     -7.83663975	      9.10789232	      0.73506743	     -2.59321042	     -2.93133539	    -13.71873047	    -14.69193826	     20.39664562	     -6.41476838	    -11.89502843	      3.43977735	     -9.43496215
      0.06000000	      4.83310832	     -3.03115734	      4.43668063	     -1.18347992	      0.95340330	     -0.45962101	     -5.51294287	      4.02803008	    -12.67149645	     -7.80897553	      9.11562829	      0.73536527	     -2.59455494	     -2.93610826	    -13.75834482	    -14.66499489	     20.40762935	     -6.40576250	    -11.85721703	      3.44173745	     -9.44235090
      0.07000000	      4.78731198	     -3.03978924	      4.40520745	     -1.18313104	      0.95331825	     -0.45963107	     -5.49343303	      4.03043218	    -12.65843565	     -7.79124352	      9.12221160	      0.73497272	     -2.58713837	     -2.93855329	    -13.80290927	    -14.63871152	     20.43292332	     -6.39055344	    -11.81445445	      3.43938728	     -9.44748790
      0.08000000	      4.70920674	     -3.05703820	      4.35674508	     -1.18284897	      0.95317867	     -0.45959608	     -5.41988577	      4.03877092	    -12.58980158	     -7.79973425	      9.13097901	      0.73090037	     -2.51780792	     -2.95401878	    -13.86788032	    -14.66193195	     20.47334894	     -6.34460455	    -11.74709073	      3.43809395	     -9.41948463
      0.09000000	      4.68074572	     -3.06756561	      4.33930065	     -1.18252180	      0.95312246	     -0.45963516	     -5.41329067	      4.04418330	    -12.59929383	     -7.79135003	      9.13279951	      0.73005522	     -2.52197610	     -2.95922353	    -13.89106923	    -14.64367482	     20.47659203	     -6.34083619	    -11.73014821	      3.44661124	     -9.44783424
      0.10000000	      4.64773939	     -3.07659576	      4.31909332	     -1.18219710	      0.95306035	     -0.45965970	     -5.40049211	      4.04833787	    -12.60020461	     -7.78474532	      9.13354673	      0.72965501	     -2.52024346	     -2.96336637	    -13.91377466	    -14.62772767	     20.48508521	     -6.33615629	    -11.70884171	      3.45188379	     -9.47119275
      0.11000000	      4.62911852	     -3.08201289	      4.29992207	     -1.18189981	      0.95302006	     -0.45968029	     -5.39981052	      4.04969044	    -12.60288658	     -7.78212088	      9.13380676	      0.72970187	     -2.52400312	     -2.96452671	    -13.91435480	    -14.62982990	     20.48615639	     -6.33559612	    -11.71136338	      3.45078855	     -9.47875172
      0.12000000	      4.59131669	     -3.09274993	      4.27404068	     -1.18154383	      0.95295362	     -0.45970459	     -5.38195334	      4.05428359	    -12.60025538	     -7.77853399	      9.13458339	      0.73002625	     -2.52571976	     -2.96786898	    -13.95212916	    -14.60045975	     20.49572535	     -6.33527691	    -11.67381766	      3.46211762	     -9.50669981
      0.13000000	      4.57508810	     -3.09735929	      4.25250108	     -1.18123341	      0.95291746	     -0.45971214	     -5.38323018	      4.05481619	    -12.60209204	     -7.77829988	      9.13488179	      0.73008070	     -2.53126959	     -2.96973851	    -13.95164368	    -14.60633748	     20.49647742	     -6.33528954	    -11.67066641	      3.46071546	     -9.51155013
      0.14000000	      4.53238594	     -3.10934558	      4.21427463	     -1.18087118	      0.95284493	     -0.45971048	     -5.35763359	      4.05937226	    -12.59065439	     -7.77749476	      9.14027835	      0.73012417	     -2.52895633	     -2.97402575	    -14.00289548	    -14.57780952	     20.50860474	     -6.34014182	    -11.62009496	      3.47167837	     -9.51790568
      0.15000000	      4.51971114	     -3.11352354	      4.19161596	     -1.18055345	      0.95281296	     -0.45970736	     -5.36219252	      4.05978625	    -12.59015249	     -7.78087019	      9.14111336	      0.73006666	     -2.53611154	     -2.97592443	    -14.00112064	    -14.58883400	     20.50928829	     -6.34070983	    -11.61152519	      3.46967138	     -9.51987224
      0.16000000	      4.45195782	     -3.13168538	      4.11779135	     -1.18024907	      0.95269431	     -0.45962468	     -5.29196884	      4.06698490	    -12.49640508	     -7.80510261	      9.17031632	      0.72739210	     -2.48170240	     -2.99293745	    -14.10174710	    -14.61373260	     20.54735033	     -6.36415263	    -11.53594702	      3.47435261	     -9.45662621
